<mxfile host="app.diagrams.net" modified="2023-08-31T12:03:58.670Z" agent="Mozilla/5.0 (Windows NT 10.0; Win64; x64; rv:108.0) Gecko/20100101 Firefox/108.0" version="21.7.1" etag="CzKLjouNm1_GPqIewkhR" type="github">
  <diagram name="PÃ¡gina-1" id="DmSA-fIm3tuvx2oau6QH">
    <mxGraphModel>
      <root>
        <mxCell id="0" />
        <mxCell id="1" parent="0" />
      </root>
    </mxGraphModel>
  </diagram>
</mxfile>
